ply
format ascii 1.0
element vertex 483
property float x
property float y
property float z
property uchar red
property uchar green
property uchar blue
end_header
-23.904680082277256 -22.214331673598817 -48.26862579286402 207 209 208
-25.62065553087842 -19.22194515917729 -50.9578161679726 125 127 124
0.5729855843737286 -12.380564531123852 -12.581281655138595 63 48 41
-13.788800312207146 11.176045802873528 36.04277964798885 48 47 43
-13.076086215897034 11.224509985099763 35.586711312871074 148 117 86
-23.480128807120174 -22.057526217998017 -46.865526293192936 184 186 185
-14.422215598522971 11.230193924269606 36.329301035852566 154 121 90
-10.943651035281604 15.403876122228535 38.34387985038075 221 221 219
-13.076086215897034 11.224509985099763 35.586711312871074 148 117 86
-12.77155465793885 15.005937772492466 37.52242678109467 60 42 28
-25.62065553087842 -19.22194515917729 -50.9578161679726 125 127 124
-13.788800312207146 11.176045802873528 36.04277964798885 48 47 43
1.6344272706183578 -11.082383278411365 -10.239369331267914 172 142 116
-12.175067693502168 7.172709101872024 32.86483158133163 128 114 111
0.5765705164825611 -12.554572410162008 -12.93679988966516 151 116 88
-25.570692132154797 -19.0074833839999 -50.58080293045453 204 209 205
-13.946668185283862 11.301615095147518 36.00838154582573 142 128 117
-10.566696297992747 7.524043964778105 32.041338438994984 62 47 50
15.385134294581686 -35.61197854239755 -96.59477324494244 60 62 61
-15.054926655806184 12.224098799838485 37.48992886971296 43 41 42
-12.45090704255321 10.668447597784883 34.94750785711529 146 111 81
6.437325994823101 -15.431525281309382 -25.088858177490483 191 208 228
-23.408589390894978 -20.14423426293746 -44.185301700172104 163 163 153
-14.470623664082222 11.980542336033253 36.78436590939202 47 46 42
-13.292478921267673 7.592964385447032 33.781328837248815 59 39 41
-13.946668185283862 11.301615095147518 36.00838154582573 142 128 117
-12.801618148619651 7.395926756362291 33.259174607554286 168 157 151
-13.73702181736208 11.356177449813465 36.048015202095556 138 112 89
-15.332998221532012 12.061738594215383 37.31384353212108 161 139 118
-10.563029553267075 7.708382146227482 32.06778402559348 58 49 50
-10.776497712853413 8.90780206475977 32.90236107101222 146 135 133
-14.059829157539655 11.737195068543578 36.481272861984515 45 43 44
-13.371714935040101 7.457141357500681 33.66661046623217 139 107 108
0.653554206086384 -12.785341000721896 -13.346604046722149 143 106 77
-13.504389628886672 11.000143292334325 35.84424426488501 152 121 92
-10.869872332547974 9.895981041728003 33.3368371683806 58 44 41
-11.317760777532637 9.962401218711852 33.66849825902435 50 37 31
-12.739244129608371 7.3343871584830955 33.46816103207122 60 45 50
1.8369307126125725 -12.705574364236293 -13.229214010202977 144 116 95
-13.73702181736208 11.356177449813465 36.048015202095556 138 112 89
-0.6569913368110188 -12.053969455095736 -11.99111316660313 137 103 76
-13.371714935040101 7.457141357500681 33.66661046623217 139 107 108
1.730898292368899 -11.200679112514598 -10.42537811022254 158 128 102
1.5930749227432062 -12.836655581208221 -13.451295145640175 147 113 86
-10.678053405961661 8.467339268947484 32.55508802738653 119 101 101
-7.373303632007326 -16.75767485295168 -20.710177379177136 202 197 191
-7.295098956606762 1.056148587491188 34.90410684030735 159 160 155
0.3719091471418563 -12.723781766127145 -13.191346212383868 156 125 97
-11.536366440814946 14.363862461483922 36.58182428407322 191 187 184
-10.505142301990029 7.398309007145386 31.878181200293113 135 124 118
-13.893202629321655 7.54635805657684 34.08200240128449 126 88 87
1.5930749227432062 -12.836655581208221 -13.451295145640175 147 113 86
-10.551625209791345 7.307539607336598 31.801270050534878 77 55 41
-10.764695798659561 9.429059282685891 32.96608790094064 144 129 122
-13.598680687452163 11.318950876950028 35.75618334175322 150 138 126
-10.477310704916516 7.162273419469618 31.76262369563043 63 52 56
-13.02575352406697 7.135633080904137 33.236078407650936 65 55 54
-12.497484400093311 7.1863469228843755 33.05976456879011 88 70 70
-10.836672010548574 9.67288072984048 33.188898545675826 69 51 49
-1.20964743179709 -12.547948063501448 -12.910840221324213 135 109 94
-12.055490797242836 10.61884646900672 34.4468142622934 53 52 50
6.42503071439659 -15.73357874602242 -25.27088411714627 21 82 147
-8.906784511616175 15.908788230800525 48.014924548374346 142 143 138
2.6245413759243634 -12.043810510968212 -12.038597361019386 141 114 97
-21.423875357856748 -37.08431421129414 -61.716617682362134 209 213 212
-13.607637938308457 11.600940968945682 35.941846820865095 166 136 112
3.748480336165872 -16.522077458750523 -20.243654642700516 129 98 78
-16.192175591063286 16.509495663715946 40.27720222123683 102 79 65
-14.539579350553902 11.926434662321336 36.721453795857656 47 38 31
-13.411808361928642 7.348109337932988 33.6411314886094 146 107 102
0.7471079782437248 -12.75232296953513 -13.281430764530317 158 124 97
-0.6314529375322757 -15.550770886513526 -18.459808903771705 131 111 100
2.1021457452693677 -14.632227574359652 -16.760632501125432 130 102 81
-8.332102847357035 3.9742779489978473 30.940267896660398 254 255 253
-2.958863378894553 -13.548219125437532 -14.706411087710691 149 126 110
-24.600173829268268 -19.185517875433884 -46.841349810869616 194 189 169
-4.985476012643718 -14.276318301014708 -16.02749321465634 145 131 120
-12.373794152781521 7.249084431956488 32.98298121236445 147 127 126
-12.183692039739809 7.045580439172542 32.65734952074194 99 86 80
-11.96603773376624 14.762491566815127 37.21189124723832 66 55 49
-12.507722052388571 7.315591201427674 33.11063097655477 134 114 113
-15.292836082608154 -24.79918342923298 -35.74012871741679 62 55 49
-24.58301807534976 -19.813544897941956 -46.85382887583785 105 104 100
3.6972780420228477 -16.409555993229457 -20.083744328921433 124 97 78
-8.865291399038995 15.478404706231197 46.54392543711099 158 159 154
1.3616453265822048 -13.08801106685623 -13.965118810101037 92 60 39
-11.550003036185997 13.248597860803494 35.69302206846575 175 145 117
-11.819433258209513 10.56344799782012 34.083002846206725 48 47 45
-12.163930973811956 7.1300056489942385 32.84262418347378 177 163 162
-12.183692039739809 7.045580439172542 32.65734952074194 99 86 80
-12.601581555237686 18.95004329696246 44.75472324785098 125 124 120
-23.12869854155961 -19.814246858197237 -43.36981892919568 160 154 140
6.4278141278447 -15.90149975786818 -19.15779402469138 182 167 148
-12.554595021500237 7.302597236456128 33.10365783372997 58 43 48
-23.425837628739625 -20.17218400779964 -44.44886376269557 191 188 171
-14.779516770869712 12.192218634782746 37.17064456291167 158 135 119
-10.777314691661903 8.960376185225952 32.80006031091206 103 82 65
-12.699332534993694 7.235918208475789 33.1508232950501 87 67 66
-12.162897409328078 7.126861476304075 32.742972639398005 96 82 81
-12.00493409409592 7.047128592498501 32.53168146825936 90 76 73
2.7735106124994586 -17.148242970644652 -21.545359624116646 87 70 60
-13.114937967385307 7.533118966961114 33.611925328228764 156 142 141
-10.790475549597742 9.278751919116013 33.03001447567219 118 108 107
-7.84591188101668 -15.906211022281239 -19.20987276528256 146 128 114
0.4539188969939862 -11.287742339478507 -10.547955793665777 180 161 146
-10.401291969978075 6.9706669183566765 31.484003162321414 118 108 109
-10.994807270281447 7.017619200445262 32.7627002492473 56 46 45
-12.914436032243266 7.269113227411874 33.26747305699514 55 41 40
-12.492285902727664 7.308955478995706 33.16899073155289 63 38 41
-69.2661135884247 90.4894976983864 173.38744114641355 132 109 93
-12.71419369051549 7.169798441538433 33.00015037388772 66 52 49
-24.087964998879283 -19.31514300184296 -45.28175620060116 165 167 166
-12.857630467663345 7.262150564532756 33.26048019355362 138 126 126
-12.163930973811956 7.1300056489942385 32.84262418347378 177 163 162
4.938379529902923 -16.203814904374806 -19.65549232003923 161 147 136
-12.743003604744693 7.242957476745959 33.140737805139715 144 128 128
-12.230349679620122 7.014225999289978 32.892218342135585 100 90 88
-14.260890990291522 11.434207313333621 36.07388909326048 47 42 39
-10.813594447872717 9.579702752569347 33.12572555790863 140 126 125
0.9249324839297345 -13.335671390216916 -14.339228399332205 143 111 88
-12.871457971174442 7.188386251875093 33.162954011977696 154 142 142
-10.550054582361698 7.021056016207937 31.88145605637627 63 53 52
-14.41559403813466 11.790295957093846 36.517477417223624 48 26 5
4.045440513874678 -16.404386160602165 -20.062523135331453 132 101 83
-14.5993117672827 11.30402462837353 36.49215292550156 39 20 14
-14.5993117672827 11.30402462837353 36.49215292550156 39 20 14
-0.5311761476307942 -15.549839156886788 -18.544403436135607 137 118 103
-12.438062790732024 -32.14680369620321 -49.34909416937102 144 136 133
4.972470019042521 -16.20678855624568 -19.667868434019127 68 51 43
-12.500116881579673 7.16619008723755 32.945729495605505 145 129 130
-12.493545212005792 7.263534551391582 33.324227624251435 61 45 48
-10.432660400799444 7.041580049128132 31.619182108726665 73 63 64
-10.671428920624729 9.093245101752155 32.640608980388265 115 102 96
-1.0504594836525811 -12.832997124407004 -13.401130480357194 78 57 40
-12.21827758374778 10.858393329426267 34.50209455875168 136 123 115
9.394252477062496 -21.059660293868564 -28.496759402714357 151 131 107
-24.25113307908781 -19.054560445811607 -46.15446838018898 147 140 121
-15.386945620642644 12.000867931867193 37.31976096909411 151 120 91
-23.92922692826876 -19.258000730889616 -45.08084016138356 230 232 231
-14.364581466249378 11.843350517861449 36.22555987914051 27 17 8
-11.991039261205131 6.988365454087813 32.444807257664415 162 149 143
-12.700828997243464 7.302727068955405 33.18692326768097 168 150 146
-11.528256985523967 10.25051436065059 34.25849912036799 66 55 51
-10.531733295449222 7.786553075342821 32.01497874996125 123 98 94
-13.201682337640635 7.2385470994253 33.40841293854632 55 41 41
-70.88286505585029 85.94977451512591 167.14948087415488 132 105 86
-12.310908336461111 7.26418305194622 33.11023594991384 168 155 149
-11.436960954375234 15.374684809542382 38.43918558066997 116 116 114
-12.543026442900393 7.136886997594707 32.9272436000463 80 64 64
-15.386945620642644 12.000867931867193 37.31976096909411 151 120 91
-14.93753464709991 12.271455822842137 37.396352466762764 43 32 28
1.1409512184484822 -15.350591611631387 -18.109546618016523 28 13 6
5.2743048873598966 -16.541488843567894 -20.23570990577879 73 58 53
-9.97928314388214 15.266194079030198 38.22499369856057 66 62 59
-118.64153762673358 159.4864400033296 301.1065498584635 128 106 92
-23.726261988759905 -19.28157834600555 -44.667475670599 137 141 140
-15.028079146651939 12.03927174237139 37.059042637921095 43 41 42
-12.289571253768749 7.0493521112855815 32.68964444923721 58 44 43
5.428393301049241 -16.903095863918416 -20.985943742787786 48 47 55
-13.085264769684057 7.15420953079577 33.19464019947866 118 108 109
-12.686584919717227 7.376674384223378 33.336095132777125 170 155 150
-12.388520634602111 7.126318275669312 32.886287711134244 124 104 106
-10.467764064678299 7.143639410644981 31.57089192868596 54 39 36
-23.888080525232176 -18.95483371901929 -44.83222690464792 156 152 140
-12.595232814372782 7.186719339761702 32.98073838265706 151 131 132
5.118978232308809 -16.942322011161114 -20.905183248835723 61 52 55
-12.330083413456363 7.335988422323802 33.19796666525162 93 72 53
-15.48143475905342 12.295191431285597 37.530478865397846 49 41 39
-13.851987641165335 7.431360521996774 33.610743383446916 115 81 80
-12.743003604744693 7.242957476745959 33.140737805139715 144 128 128
-5.017683628779648 -9.021168721890524 -17.041578814403103 114 115 119
-9.38551863378307 5.1473850513517485 42.982913409564674 218 219 214
-10.360206401905478 1.4991370909743362 41.419182273675645 215 216 211
-9.360323527108646 5.085264743312645 43.08855877552443 232 233 228
-9.38551863378307 5.1473850513517485 42.982913409564674 218 219 214
-5.086699855817517 -8.943281078920174 -16.86133124222078 96 97 99
-11.209821750345247 -7.8160083913091 38.5841516113572 215 214 209
-11.169699443847787 -10.221339649812643 37.93797571967651 213 210 205
-1.1024096673220634 -11.424547333976141 -38.856304987905666 105 107 104
-3.7538138868837945 -8.771414970197995 -19.225250788033435 80 82 81
0.28286018609533686 -10.309855842994034 -11.032472896508565 156 131 111
-12.732600455425601 11.097161132234683 37.75355854445456 47 46 42
-1.188993506809351 -11.285890511571253 -38.46698892710732 55 57 56
-9.443989900034941 16.512608575053548 50.626874132727544 128 127 122
-10.478715400185276 1.592483863870657 41.72801258973277 141 142 137
-12.6249702207667 11.087654473913467 37.5133037115299 128 107 88
-11.230965780763993 17.317044787749364 40.00169042499082 167 166 161
0.5827337073736204 -0.3230006749955861 -1.3904617226983969 47 39 36
-101.21269812474219 -77.08396469378634 -182.46354428740935 187 182 162
-124.15129169893603 -96.64249811604954 -224.01535670487112 67 68 63
-12.121561177083521 -9.952041337851641 43.87241508331777 213 210 203
-8.753226161999464 -74.97622925616831 -333.9060532163783 216 216 214
-12.121561177083521 -9.952041337851641 43.87241508331777 213 210 203
30704.972744603532 26816.34261837103 53836.55212044163 202 204 203
-129.15102460359415 -101.25038173685958 -234.7716181955243 198 191 172
-180.52794281836188 -146.57405057473156 -321.92495117208216 103 103 91
-214.55227210095472 -175.77007788729486 -385.8617849582171 192 186 164
-124.15129169893603 -96.64249811604954 -224.01535670487112 67 68 63
-2452.012340268633 -2207.0827935449524 -4484.8155956167 184 188 187
-214.55227210095472 -175.77007788729486 -385.8617849582171 192 186 164
-188.17814040680813 -157.22902684507318 -345.26511070456485 188 183 163
20.890480218208292 23.068551255810252 31.16432774395267 176 173 168
-5.820497551432658 -9.598745799019287 -17.56967841005897 49 53 54
-132.2457587104653 -104.99186500930263 -238.52891251392938 242 246 245
-5.799376126321073 -9.596373703150942 -17.424251392084855 147 146 151
-5.739080347364536 -9.628547832251328 -17.45040005627798 186 188 187
-107.36040020207746 -81.3019331655374 -193.26154182472789 181 176 156
-3.977434186363177 -9.650417623671789 -20.594428455118905 113 118 114
957.0079552666351 815.9127158449703 1634.639895694547 125 127 126
-238.09677549777285 -197.82929600648686 -431.28354631866216 143 137 115
3.6031028279373074 -20.76362994292921 -24.164338508342592 146 117 87
-4.3327257471463385 -8.377724607752812 -15.570033876488422 100 102 101
-2.9736803409989463 -12.745244894833196 -32.702445133816326 117 119 118
16.13153441016033 17.035484518111506 22.658930401598525 184 179 176
-1.1461260366222714 -12.18201112830275 -12.958518490506885 177 167 155
-2.9736803409989463 -12.745244894833196 -32.702445133816326 117 119 118
-5.782316089868945 -9.52393855451585 -17.37273734048151 199 203 204
-1.1461260366222714 -12.18201112830275 -12.958518490506885 177 167 155
692.9391729502278 640.8726643578882 1324.8228468458656 117 122 118
-0.17496908488145757 -14.445002498660235 -36.930826448997124 103 104 108
-21.767343877267656 18.664393306790164 58.336136655168865 150 120 96
-10.711809917063306 -16.043890320557388 -19.98105049102346 153 141 129
-111.46403522654974 -83.63671194391326 -199.0728268101715 79 79 71
-211.14879624401044 -172.70609149960015 -376.95993566912114 75 73 61
-3.617136539155807 -10.061458488326656 -22.23255783312764 119 121 120
-8.708398878865589 -25.60367733378175 82.62005299468927 117 126 123
-272.2744846658144 -228.8535171627435 -488.24004013104917 157 154 139
-12.202602642188465 -6.1189423233359035 41.19734180869349 222 221 217
-2.2456348099046637 -10.421114898308113 -11.134934912540022 152 131 114
-11.589153905396303 -8.709736588072317 46.94006875561005 157 158 150
-5.473042913356362 -9.193140865933401 -16.769319363981747 76 80 81
0.1781169948754275 -16.647957340772553 -42.86310056873571 100 104 105
240.6095801209252 212.4410356482649 409.09949096290535 164 166 165
-9.544692060823285 5.743263438900808 46.9557689523213 146 145 140
-5.473042913356362 -9.193140865933401 -16.769319363981747 76 80 81
-6.593803271575075 -12.059169679512443 -22.385788164414084 108 109 111
-3.525687197518457 -12.591931673517221 -14.613225458557148 160 142 128
-0.9313223719722978 -11.744102258752237 -12.05318214706196 144 121 105
-1.849668723756964 -12.776726803041566 -31.27888800554583 102 106 109
240.6095801209252 212.4410356482649 409.09949096290535 164 166 165
-5.80839211489548 -9.628444976834817 -17.452735003348177 75 75 77
-1.1382247147946163 -14.648220607755382 -37.11039687575051 105 107 106
-1.849668723756964 -12.776726803041566 -31.27888800554583 102 106 109
-2.191260498935404 -10.224946912553222 -10.888540842400143 87 67 56
-8.265815962345961 -25.538887274197844 81.36168329832118 182 188 186
1.115901301149444 -14.056341863418181 -14.128505424903475 101 69 48
2.5726451222987934 -16.31405560374748 -25.27753206153404 95 99 102
-28.123408858503858 -19.110122535420658 -83.4815031714341 205 207 206
3.475706782693245 -21.618262933712717 -57.03844461881507 103 104 106
-0.5540103190609671 -13.912790980296 -35.31834262105494 109 111 110
-0.5540103190609671 -13.912790980296 -35.31834262105494 109 111 110
3.475706782693245 -21.618262933712717 -57.03844461881507 103 104 106
-3.260288226240416 -10.335234097965271 -23.502392085108198 106 110 113
-28.123408858503858 -19.110122535420658 -83.4815031714341 205 207 206
-3.6384445423622642 -10.341268398553266 -16.756788287828307 68 72 75
2.885189382084146 -20.912697297177168 -56.17596068301705 98 99 101
44.27712066935389 43.61386504040546 70.83865020654353 219 221 220
-1.1166045834094716 -14.21840723808324 -35.65040316056034 105 107 106
-1.1166045834094716 -14.21840723808324 -35.65040316056034 105 107 106
-3.0455029991237383 -11.108450332399698 -26.142894843304067 63 65 64
-49.03864315035365 -24.12477347552554 -76.45973419684306 163 163 161
11.18240312444314 -23.72807317919707 -38.437861266274545 54 75 104
-47.40143561985342 -23.08164297629166 -73.43496607836649 226 226 224
16.144807688207468 -39.95167775975147 -71.69519211518725 129 128 126
-2.466675262448411 -14.215882525803819 -38.15204007630646 115 119 120
-11.59115921467893 14.656430910246714 35.39801576064536 95 73 60
-156.527169635989 -126.18473570800128 -278.86943715646487 115 109 95
8.463727783545803 -28.98034246644043 -36.219022918923315 69 130 184
-156.527169635989 -126.18473570800128 -278.86943715646487 115 109 95
3.1873598714797e-311 -1.7996892211764e-310 -2.18311960552284e-310 126 95 74
-2.5531629736517e-311 1.667888787119e-311 5.677625200295e-311 197 197 195
-1.0933629249097e-311 -1.5231704985083e-311 -2.2138976941825e-311 191 183 180
-1.0933357964094e-311 4.0211856809823e-311 4.9051160844356e-311 149 117 92
-5.5171842275e-313 -2.918781031124e-311 -3.389950682005e-311 43 25 13
-2.3892771814603e-311 9.7397273868116e-311 1.0101644744249e-310 60 45 38
-8.72988140605e-313 3.036438906296e-311 3.45585467802e-311 155 130 110
-4.5155337561e-312 1.365885572663e-312 2.23166387972e-312 123 109 100
-3.6802282587424e-311 1.76270443761904e-310 2.109841497088e-310 159 129 101
-3.6802282587424e-311 1.76270443761904e-310 2.109841497088e-310 159 129 101
-2.357038641922e-311 1.19071032135587e-310 1.430178193289e-310 124 97 78
-1.5967544845136e-311 -1.2349993908233e-311 -5.0169972380976e-311 76 78 77
-1.8289043356e-312 -2.6981350634e-313 5.571269765623e-312 109 110 102
0.9209551760379491 -0.8682125486715262 -3.0805634495011303 199 201 198
5.525354876064309 -9.821859358370816 -23.311124966136806 74 76 73
4.069901001355726 -6.1180767521464885 -11.653271460860449 86 81 75
-0.43245512532005825 -40.011833916543814 -43.056305751474746 90 62 48
1.1173248272265688 -47.439355392611986 -50.72403499502459 154 120 92
1.8455673847288938 -26.19241821983688 -29.339892651513736 142 110 85
1.912431589286141 -23.25891941775412 -26.28388570635082 56 30 15
0.3409525704034823 -21.86304558722493 -24.885856777821576 146 123 107
2.7121938536269714 -16.876111095425507 -19.883252171003896 151 123 102
-0.9853353431071576 -45.20178455072724 -48.152950777544554 100 69 51
-2.554850598033216 -56.692264123564 -59.502574939656256 97 62 40
3.067082229041991 -12.122472063025619 -14.963973204179148 121 93 72
-1.4898901067405428 -23.39736061998692 -26.16827425974378 160 131 113
0.3409525704034823 -21.86304558722493 -24.885856777821576 146 123 107
2.953084380133959 -14.754424445568802 -17.746009653514204 141 110 90
1.9102277382150796 -25.059900154341072 -28.235532035239636 70 43 26
2.533019971019723 -16.632359200586777 -19.48920873979852 143 113 89
1.4442511449971336 -42.850283754428816 -46.01493816975638 143 112 84
3.039060201410372 -17.122980936612006 -20.103122693502915 139 107 82
1.897213304540177 -25.219599200878676 -28.358733804304215 161 135 112
-2.242445740291747 -2.453434635316084 -5.890662026328765 153 155 134
-7.783135165424836 -57.28076668187002 -58.85419544985138 138 110 89
1.7107648565455211 -26.091641684937613 -29.221071270947096 85 57 36
3.248416339789755 -13.275885374930857 -16.1255640544507 143 111 90
2.6744763804658067 -13.180566581537501 -16.20712615902098 40 29 23
3.489361421166886 -13.400620479267102 -16.418811488698676 132 101 83
1.0979416846506704 -15.186058662181134 -18.251518197629444 29 25 22
4.033199071175945 -10.388224775613676 -12.84695190168335 68 64 65
-0.6712388985368891 -26.742247409209916 -28.163645326112416 157 122 94
0.08912932086762486 -25.717501088415215 -27.46580225282897 163 133 105
1.661297305163755 -21.19495383143219 -24.039217300563582 158 128 102
3.8866185567815075 -18.163358638255236 -21.84200732864566 148 119 89
-5.9886762224272445 -52.592709074657456 -48.9244972005124 158 127 98
1.406329114394179 -31.590840486091864 -32.3444061089579 145 111 84
1.406329114394179 -31.590840486091864 -32.3444061089579 145 111 84
0.4860294764894781 -25.115070367640104 -26.985094837476133 152 125 95
-2.1573248747160614 -5.319167377180656 -8.973014358395623 198 197 193
3.573620403640891 -24.040122543655972 -26.423320272683558 139 103 77
5.639644541982316 -3.1204207033494193 -11.62196182181512 202 202 200
2.838454978929914 -24.23813253784115 -26.58434301617833 138 104 77
1.2793027960518968 -40.1941279441024 -39.27574185006328 142 115 86
-0.21062849326152075 -26.045695109520754 -27.688797590364025 171 140 109
5.20897635861519 -3.3677050423869503 -12.018986098895681 129 130 124
3.974485156513737 -16.911664805710565 -20.875890811742302 55 33 20
-0.9386131393549259 -19.21530008661446 -21.815832233340636 141 113 91
-0.4179159542325809 -18.67875169829571 -21.545085082511452 159 137 114
-2.395363594739675 -5.22761984505716 -8.663833990823454 190 186 183
-2.361575475514251 -5.401192472948241 -9.000594049481691 68 63 59
1.4558413186764032 -21.510458235730702 -24.221737633337355 142 112 88
5.5144144738844965 -0.9125606566630892 -11.669015452860311 246 248 245
-2.403270759443741 -4.804220888015112 -7.837951334302151 195 194 189
-2.1938975431498555 -40.8298576741155 -39.622455331828014 66 42 30
1.0724459967140487 -17.35364044243895 -20.81932061924439 140 112 90
-1.7249120839116325 -19.93669427034507 -22.183190907864955 153 127 110
-6.547032308789239 -8.432007535822176 -12.6145956339527 102 93 88
2.1495853943098977 -27.894756476251892 -29.406752065109902 149 118 97
4.401257059253907 -19.76768396555416 -23.092318135669014 90 61 43
-1.1044986684781484 -37.83695331998055 -37.24118488562186 152 121 93
4.205357321276001 -16.58369815646931 -20.630159189746944 135 107 85
3.9920103834304905 -22.98921849672775 -25.61657423695544 144 112 91
4.600598372148334 -34.409528349731175 -34.60414378496691 150 119 99
4.01869539746145 -16.875312307806155 -20.83660200836431 144 115 97
5.639644541982316 -3.1204207033494193 -11.62196182181512 202 202 200
6.899495183719718 -12.43044082299969 -17.254124084831577 136 119 103
3.5567431558680687 -17.904206333831105 -21.650459059030872 135 103 80
3.0651787017974077 -19.764678499165218 -23.110395445922787 123 89 64
4.54877080244862 -34.80201760757313 -34.919617778719385 161 134 117
3.4105036742574733 -18.058911494553158 -21.73113742055951 151 124 95
1.2411032499718697 -24.17049049646975 -26.319865778224695 171 141 117
3.39654933473221 -16.74972435010381 -20.74156150548701 48 37 31
3.41993516105151 -41.08457014393354 -40.00253945129919 146 118 96
0.2400508807085873 -19.726455800697384 -22.584571264835088 191 169 155
-0.7464207573004782 -21.818724648446082 -24.069833950126174 102 70 49
1.5966890549528066 -21.22489976113721 -24.03727116383951 158 130 108
-0.666352402268878 -36.72919335725756 -36.3819842548304 150 115 87
-0.04193778298541819 -23.977405541936548 -25.993826601837586 169 135 108
1.2156106294249733 -17.1882109009766 -20.775436456324627 129 124 118
-1.8044501294096853 -31.2698673720603 -31.700150865263172 171 145 132
-1.4539537489207028 -19.70222127337067 -22.08703166724163 165 136 118
0.2400508807085873 -19.726455800697384 -22.584571264835088 191 169 155
-2.5335449784339557 -4.9172034865264385 -7.987585532916468 204 203 199
-0.441659894276922 -35.96653983578731 -35.75218430896131 158 123 95
-2.8462480121208773 -11.179127330676911 -13.966660568911642 141 125 112
5.24025510824198 -31.392378459700446 -32.17248275053123 72 48 36
10.139410286525491 -18.156125723399267 -20.56378001171332 134 115 100
-0.6102726842984225 -24.954852947958496 -26.71484352705668 166 134 111
5.087359553469667 -3.437246619965544 -12.07479705323821 139 140 134
4.232954252228688 -17.27629825341172 -21.134899867952075 154 124 100
2.2317598314141254 -21.48767662375123 -24.326880597253528 173 144 126
-0.3732882112742636 -23.978674214989027 -25.935416019905794 95 66 50
-0.7442684874675529 -21.616356546324027 -23.880106821597344 151 120 99
3.364743283287831 -19.040978061775828 -22.49945478648968 152 121 93
4.529531905538679 -35.76335880930582 -35.729125405960396 89 62 51
3.3326639631283097 -19.022051846410537 -22.456442911302684 155 125 99
-1.8444678649565347 -20.07310600509255 -22.27358656960899 148 125 109
2.1495853943098977 -27.894756476251892 -29.406752065109902 149 118 97
-2.464031884500052 -4.868468961550841 -7.913627734184451 76 71 65
-0.7464207573004782 -21.818724648446082 -24.069833950126174 102 70 49
4.038919710018178 -22.96614824574041 -25.592805604629024 153 124 106
4.827863196931586 -15.432184447651737 -19.76030565226696 129 107 93
4.511957314294909 -16.87993045275118 -20.86744358114653 142 110 89
4.905475631362022 -15.159556997256182 -19.555940006575604 32 32 40
11.178479558319545 -20.035205911792104 -21.562715002293647 193 182 162
-2.5278243682885626 -5.367283482253657 -8.447530093212182 149 140 135
-2.0422043540211887 -43.27763207569729 -41.621980582496064 87 54 35
-2.514689225896965 -5.4044682321720225 -8.506457642079603 65 58 52
2.3079280036574596 -16.14350527048236 -20.138930919027082 109 86 70
3.085142632297647 -18.584584017263207 -22.131451218167918 56 29 18
1.6823423851679757 -21.10213300433767 -23.9935807952484 69 42 23
2.8187428541768607 -19.01034989545922 -22.39863167666164 154 124 100
-0.28628096811429016 -34.914876575595045 -34.86977357518939 88 55 38
7.308543405447581 -12.916009779900532 -17.52810493729588 92 74 62
0.08884782531262185 -30.264309159535056 -31.180394469654548 110 74 52
1.5992654004238633 -27.004472864935245 -28.70424907758331 152 121 93
4.351217321699286 -20.006782532970263 -23.264713862239127 137 106 85
2.9003036653413097 -19.17907072892709 -22.644220300705445 154 124 100
3.0300447886952453 -18.715207813927965 -22.21971240263583 127 101 84
6.428608361398203 -19.13077035630194 -22.44789372671812 74 57 49
4.014706647688327 -17.65068888601215 -21.446371066927014 95 60 38
0.736127542375497 -24.75330140364353 -26.717267911093646 149 117 92
-0.8782482386120491 -26.808212929915893 -28.149717115304263 169 138 110
3.0490118776518447 -24.857411719868782 -27.01900224418747 137 110 91
-2.497498733594203 -5.03224820205927 -8.213456981830054 87 82 76
0.9541023341106043 -24.592115971442894 -26.685270395951402 168 134 107
-0.422477137764607 -24.445874748741485 -26.274901393907523 167 137 113
1.6936801482017065 -20.980665408235264 -23.833279589597982 156 128 106
3.4615121260388655 -41.72028169543932 -40.55358138800016 87 61 46
2.4487641749626334 -32.22308639214811 -32.91585137951556 193 166 145
4.754860575952651 -15.67145057643847 -19.986617250592918 127 104 88
-4.627070252116647 -51.296045604483766 -47.944976733266856 158 124 96
0.8828567933033986 -22.544009072316896 -25.01906171325383 151 121 97
7.356689328569731 -12.74208438698245 -17.432582268047483 146 125 106
4.5307635497983325 -15.923127487171644 -20.11472772521669 117 90 73
3.112607913410165 -42.96345418972733 -41.5751059406685 178 152 137
-2.0305559565035063 -26.751932567564747 -27.71010800931186 145 111 84
-0.831207062837082 -15.327393375478133 -18.632092770822197 126 108 98
8.060780717526576 -10.056543057378153 -15.159533623493871 138 126 114
2.221734225435751 -20.02385619081037 -23.15255973607869 71 45 30
0.7208766144043385 -22.62509285099473 -25.040428120947286 79 54 34
-1.674136847310409 -14.078525935594561 -17.216466610170617 172 150 136
-3.2707694635869435 -44.16863226196829 -42.22710648901588 197 180 160
5.087215648038135 -32.153715107865054 -32.8103069479232 150 123 104
5.7831440435744765 -16.31935523741694 -20.374205238174806 55 49 53
5.433774924745304 -18.796728926518096 -22.237670673164775 120 98 87
0.8120126168342366 -17.435692190205963 -20.862618924490302 138 111 92
2.051805680537467 -18.601143740689768 -22.012450759582844 154 135 120
-3.2521105405945576 1.1538650392823837 -11.557828385062747 189 191 188
1.2425574540508473 -21.717374448249423 -24.385745413835426 85 54 34
-1.3889948505768048 -32.435936271555875 -32.70200931069502 134 103 83
4.432897157660597 -16.999010297854024 -20.952780479687654 141 109 86
1.2686955956410033 -21.726780367712223 -24.38321013139168 154 124 100
-2.5085107052979683 -44.617126074243245 -42.70381829509382 163 128 98
3.6917641299982824 -29.25416175064443 -30.549270655340425 154 118 96
5.471928363657813 -29.762874224757134 -30.867453634931188 142 117 97
-2.9327049453246925 -21.04112320905301 -22.750504094168345 87 69 55
4.232954252228688 -17.27629825341172 -21.134899867952075 154 124 100
5.612716410324518 -17.350318133025855 -21.157216422864032 183 169 158
3.2641628809113854 -19.788949443725986 -23.010469359427447 137 107 81
0.45465429419262265 -23.213471987332433 -25.435984831451727 104 69 47
2.9722193100234793 -32.65829361552057 -33.261640949706475 161 126 104
7.371418142771801 -12.668522428578015 -17.34028470917992 147 130 120
4.441761498346336 -35.740902507163796 -35.71411512953223 133 106 89
4.918556368858543 -16.111799527704346 -20.252722962404107 136 109 92
-0.5988177185572215 -21.412015733964274 -23.741264309502846 156 122 97
-1.6630290309498057 -22.77711298161561 -24.63116297020482 157 125 102
7.049206172554365 -12.915557178313339 -17.571047875835426 150 128 105
-2.1496385962192552 -12.670509056131426 -15.715951268990544 80 66 55
3.8815978915866927 -20.594001811337318 -23.682547062633184 81 52 34
1.2719198991287695 -17.130129241930725 -20.786620811211552 78 76 77
0.7420452029242723 -36.632466862674846 -36.243664089521744 87 67 56
2.160766855970081 -20.258258553744273 -23.34235230835746 133 104 88
-0.27449200054687806 -24.724659622923586 -26.55902879378628 125 88 59
5.205506809479864 -3.301859583434302 -11.744499735418167 166 167 161
1.863289948736899 -24.05139689053851 -26.38155050683071 155 123 102
3.8815978915866927 -20.594001811337318 -23.682547062633184 81 52 34
3.7776690312515084 -39.31783567581606 -38.59894241323527 148 119 101
1.204303254785425 -17.11195410110415 -20.71148747540719 24 23 21
-0.7372206773183851 -22.08628898917658 -24.335399666571774 159 127 106
-0.7372206773183851 -22.08628898917658 -24.335399666571774 159 127 106
1.4938340168022566 -40.87313316930072 -39.78032210662545 95 63 48
3.7289101359426238 -39.61333931759693 -38.82981646197054 148 119 103
7.371418142771801 -12.668522428578015 -17.34028470917992 147 130 120
2.4513306604322134 -20.823183921061574 -23.834082950365527 151 121 95
1.5380121060782117 -17.53239177341499 -21.07858091657361 114 86 72
0.2781937759155779 -22.30304899945284 -24.696711206016065 124 95 77
5.641572195955138 -16.244776731920012 -20.021982556086645 131 114 107
6.844021595901379 -17.45100618945223 -21.073449177468152 180 166 155
4.4613864413777815 -36.14556782291226 -36.05230660836533 83 57 44
0.43512462602002044 -22.96246394856042 -25.194608608193846 144 113 92
1.5456891535676758 -21.976034224241964 -24.64656721516605 86 53 34
-0.27449200054687806 -24.724659622923586 -26.55902879378628 125 88 59
0.11814481688908735 -25.23592401058292 -27.02625497132607 128 93 63
5.60897731868807 -17.330594971443393 -21.404606130065204 139 118 99
1.979018201592189 -21.099525914340177 -23.994111049691906 132 101 83
1.4717322498734886 -19.31358198928185 -22.51312042364079 118 92 77
1.233780892421475 -17.33644235823133 -20.931492654545995 34 17 7
2.1046693773130833 -24.98200963209799 -27.06304473401241 158 124 99
4.917539314495143 -23.46492252736692 -25.94489628275263 67 43 31
5.034941309263241 -27.13812597980801 -28.844834300536547 143 110 93
-3.5701328670938755 -29.599884807521132 -29.866523332546432 144 112 91
5.60897731868807 -17.330594971443393 -21.404606130065204 139 118 99
